<?xml version="1.0" encoding="UTF-8"?>
<svg xmlns="http://www.w3.org/2000/svg" xmlns:xlink="http://www.w3.org/1999/xlink"
     width="1000" height="1000" viewBox="0 0 1000 1000">
<defs>
</defs>
<rect x="0" y="0" width="1000" height="1000" fill="#3b4252" />
<path d="M350,400 C350,500,650,520,650,620" stroke="#5e81ac" fill="none" stroke-width="2" transform="                    translate(0, 0)                     scale(1, 1)" />
<path d="M350,400 C350,500,650,520,650,620" stroke="#5e81ac" fill="none" stroke-width="2" transform="                    translate(0, 1)                     scale(1, 1)" />
<path d="M350,400 C350,500,650,520,650,620" stroke="#5e81ac" fill="none" stroke-width="2" transform="                    translate(0, 2)                     scale(1, 1)" />
<path d="M350,400 C350,500,650,520,650,620" stroke="#5e81ac" fill="none" stroke-width="2" transform="                    translate(0, 3)                     scale(1, 1)" />
<path d="M350,400 C350,500,650,520,650,620" stroke="#5e81ac" fill="none" stroke-width="2" transform="                    translate(0, 4)                     scale(1, 1)" />
<path d="M350,400 C350,500,650,520,650,620" stroke="#5e81ac" fill="none" stroke-width="2" transform="                    translate(0, 5)                     scale(1, 1)" />
<path d="M350,400 C350,500,650,520,650,620" stroke="#5e81ac" fill="none" stroke-width="2" transform="                    translate(0, 6)                     scale(1, 1)" />
<path d="M350,400 C350,500,650,520,650,620" stroke="#5e81ac" fill="none" stroke-width="2" transform="                    translate(0, 7)                     scale(1, 1)" />
<path d="M350,400 C350,500,650,520,650,620" stroke="#5e81ac" fill="none" stroke-width="2" transform="                    translate(0, 8)                     scale(1, 1)" />
<path d="M350,400 C350,500,650,520,650,620" stroke="#5e81ac" fill="none" stroke-width="2" transform="                    translate(0, 9)                     scale(1, 1)" />
<path d="M350,400 C350,500,650,520,650,620" stroke="#5e81ac" fill="none" stroke-width="2" transform="                    translate(0, 10)                     scale(1, 1)" />
<path d="M350,400 C350,500,650,520,650,620" stroke="#5e81ac" fill="none" stroke-width="2" transform="                    translate(0, 11)                     scale(1, 1)" />
<path d="M350,400 C350,500,650,520,650,620" stroke="#5e81ac" fill="none" stroke-width="2" transform="                    translate(0, 12)                     scale(1, 1)" />
<path d="M350,400 C350,500,650,520,650,620" stroke="#5e81ac" fill="none" stroke-width="2" transform="                    translate(0, 13)                     scale(1, 1)" />
<path d="M350,400 C350,500,650,520,650,620" stroke="#5e81ac" fill="none" stroke-width="2" transform="                    translate(0, 14)                     scale(1, 1)" />
<path d="M350,400 C350,500,650,520,650,620" stroke="#5e81ac" fill="none" stroke-width="2" transform="                    translate(0, 15)                     scale(1, 1)" />
<path d="M350,400 C350,500,650,520,650,620" stroke="#5e81ac" fill="none" stroke-width="2" transform="                    translate(0, 16)                     scale(1, 1)" />
<path d="M350,400 C350,500,650,520,650,620" stroke="#5e81ac" fill="none" stroke-width="2" transform="                    translate(0, 17)                     scale(1, 1)" />
<path d="M350,400 C350,500,650,520,650,620" stroke="#5e81ac" fill="none" stroke-width="2" transform="                    translate(0, 18)                     scale(1, 1)" />
<path d="M350,400 C350,500,650,520,650,620" stroke="#5e81ac" fill="none" stroke-width="2" transform="                    translate(0, 19)                     scale(1, 1)" />
<path d="M350,400 C350,500,650,520,650,620" stroke="#5e81ac" fill="none" stroke-width="2" transform="                    translate(0, 20)                     scale(1, 1)" />
<path d="M350,400 C350,500,650,520,650,620" stroke="#5e81ac" fill="none" stroke-width="2" transform="                    translate(0, 21)                     scale(1, 1)" />
<path d="M350,400 C350,500,650,520,650,620" stroke="#5e81ac" fill="none" stroke-width="2" transform="                    translate(0, 22)                     scale(1, 1)" />
<path d="M350,400 C350,500,650,520,650,620" stroke="#5e81ac" fill="none" stroke-width="2" transform="                    translate(0, 23)                     scale(1, 1)" />
<path d="M350,400 C350,500,650,520,650,620" stroke="#5e81ac" fill="none" stroke-width="2" transform="                    translate(0, 24)                     scale(1, 1)" />
<path d="M350,400 C350,500,650,520,650,620" stroke="#5e81ac" fill="none" stroke-width="2" transform="                    translate(0, 25)                     scale(1, 1)" />
<path d="M350,400 C350,500,650,520,650,620" stroke="#5e81ac" fill="none" stroke-width="2" transform="                    translate(0, 26)                     scale(1, 1)" />
<path d="M350,400 C350,500,650,520,650,620" stroke="#5e81ac" fill="none" stroke-width="2" transform="                    translate(0, 27)                     scale(1, 1)" />
<path d="M350,400 C350,500,650,520,650,620" stroke="#5e81ac" fill="none" stroke-width="2" transform="                    translate(0, 28)                     scale(1, 1)" />
<path d="M350,400 C350,500,650,520,650,620" stroke="#5e81ac" fill="none" stroke-width="2" transform="                    translate(0, 29)                     scale(1, 1)" />
<path d="M350,400 C350,500,650,520,650,620" stroke="#5e81ac" fill="none" stroke-width="2" transform="                    translate(0, 30)                     scale(1, 1)" />
<path d="M350,400 C350,500,650,520,650,620" stroke="#5e81ac" fill="none" stroke-width="2" transform="                    translate(0, 31)                     scale(1, 1)" />
<path d="M350,400 C350,500,650,520,650,620" stroke="#5e81ac" fill="none" stroke-width="2" transform="                    translate(0, 32)                     scale(1, 1)" />
<path d="M350,400 C350,500,650,520,650,620" stroke="#5e81ac" fill="none" stroke-width="2" transform="                    translate(0, 33)                     scale(1, 1)" />
<path d="M350,400 C350,500,650,520,650,620" stroke="#5e81ac" fill="none" stroke-width="2" transform="                    translate(0, 34)                     scale(1, 1)" />
<path d="M350,400 C350,500,650,520,650,620" stroke="#5e81ac" fill="none" stroke-width="2" transform="                    translate(0, 35)                     scale(1, 1)" />
<path d="M350,400 C350,500,650,520,650,620" stroke="#5e81ac" fill="none" stroke-width="2" transform="                    translate(0, 36)                     scale(1, 1)" />
<path d="M350,400 C350,500,650,520,650,620" stroke="#5e81ac" fill="none" stroke-width="2" transform="                    translate(0, 37)                     scale(1, 1)" />
<path d="M350,400 C350,500,650,520,650,620" stroke="#5e81ac" fill="none" stroke-width="2" transform="                    translate(0, 38)                     scale(1, 1)" />
<path d="M350,400 C350,500,650,520,650,620" stroke="#5e81ac" fill="none" stroke-width="2" transform="                    translate(0, 39)                     scale(1, 1)" />
<path d="M350,400 C350,500,650,520,650,620" stroke="#5e81ac" fill="none" stroke-width="2" transform="                    translate(0, 40)                     scale(1, 1)" />
<path d="M350,400 C350,500,650,520,650,620" stroke="#5e81ac" fill="none" stroke-width="2" transform="                    translate(0, 41)                     scale(1, 1)" />
<path d="M350,400 C350,500,650,520,650,620" stroke="#5e81ac" fill="none" stroke-width="2" transform="                    translate(0, 42)                     scale(1, 1)" />
<path d="M350,400 C350,500,650,520,650,620" stroke="#5e81ac" fill="none" stroke-width="2" transform="                    translate(0, 43)                     scale(1, 1)" />
<path d="M350,400 C350,500,650,520,650,620" stroke="#5e81ac" fill="none" stroke-width="2" transform="                    translate(0, 44)                     scale(1, 1)" />
<path d="M350,320 C350,420,650,440,650,540" stroke="#5e81ac" fill="none" stroke-width="2" transform="                    translate(0, 0)                     scale(1, 1)" />
<path d="M350,320 C350,420,650,440,650,540" stroke="#5e81ac" fill="none" stroke-width="2" transform="                    translate(0, 1)                     scale(1, 1)" />
<path d="M350,320 C350,420,650,440,650,540" stroke="#5e81ac" fill="none" stroke-width="2" transform="                    translate(0, 2)                     scale(1, 1)" />
<path d="M350,320 C350,420,650,440,650,540" stroke="#5e81ac" fill="none" stroke-width="2" transform="                    translate(0, 3)                     scale(1, 1)" />
<path d="M350,320 C350,420,650,440,650,540" stroke="#5e81ac" fill="none" stroke-width="2" transform="                    translate(0, 4)                     scale(1, 1)" />
<path d="M350,320 C350,420,650,440,650,540" stroke="#5e81ac" fill="none" stroke-width="2" transform="                    translate(0, 5)                     scale(1, 1)" />
<path d="M350,320 C350,420,650,440,650,540" stroke="#5e81ac" fill="none" stroke-width="2" transform="                    translate(0, 6)                     scale(1, 1)" />
<path d="M350,320 C350,420,650,440,650,540" stroke="#5e81ac" fill="none" stroke-width="2" transform="                    translate(0, 7)                     scale(1, 1)" />
<path d="M350,320 C350,420,650,440,650,540" stroke="#5e81ac" fill="none" stroke-width="2" transform="                    translate(0, 8)                     scale(1, 1)" />
<path d="M350,320 C350,420,650,440,650,540" stroke="#5e81ac" fill="none" stroke-width="2" transform="                    translate(0, 9)                     scale(1, 1)" />
<path d="M350,320 C350,420,650,440,650,540" stroke="#5e81ac" fill="none" stroke-width="2" transform="                    translate(0, 10)                     scale(1, 1)" />
<path d="M350,320 C350,420,650,440,650,540" stroke="#5e81ac" fill="none" stroke-width="2" transform="                    translate(0, 11)                     scale(1, 1)" />
<path d="M350,320 C350,420,650,440,650,540" stroke="#5e81ac" fill="none" stroke-width="2" transform="                    translate(0, 12)                     scale(1, 1)" />
<path d="M350,320 C350,420,650,440,650,540" stroke="#5e81ac" fill="none" stroke-width="2" transform="                    translate(0, 13)                     scale(1, 1)" />
<path d="M350,320 C350,420,650,440,650,540" stroke="#5e81ac" fill="none" stroke-width="2" transform="                    translate(0, 14)                     scale(1, 1)" />
<path d="M350,320 C350,420,650,440,650,540" stroke="#5e81ac" fill="none" stroke-width="2" transform="                    translate(0, 15)                     scale(1, 1)" />
<path d="M350,320 C350,420,650,440,650,540" stroke="#5e81ac" fill="none" stroke-width="2" transform="                    translate(0, 16)                     scale(1, 1)" />
<path d="M350,320 C350,420,650,440,650,540" stroke="#5e81ac" fill="none" stroke-width="2" transform="                    translate(0, 17)                     scale(1, 1)" />
<path d="M350,320 C350,420,650,440,650,540" stroke="#5e81ac" fill="none" stroke-width="2" transform="                    translate(0, 18)                     scale(1, 1)" />
<path d="M350,320 C350,420,650,440,650,540" stroke="#5e81ac" fill="none" stroke-width="2" transform="                    translate(0, 19)                     scale(1, 1)" />
<path d="M350,320 C350,420,650,440,650,540" stroke="#5e81ac" fill="none" stroke-width="2" transform="                    translate(0, 20)                     scale(1, 1)" />
<path d="M350,320 C350,420,650,440,650,540" stroke="#5e81ac" fill="none" stroke-width="2" transform="                    translate(0, 21)                     scale(1, 1)" />
<path d="M350,320 C350,420,650,440,650,540" stroke="#5e81ac" fill="none" stroke-width="2" transform="                    translate(0, 22)                     scale(1, 1)" />
<path d="M350,320 C350,420,650,440,650,540" stroke="#5e81ac" fill="none" stroke-width="2" transform="                    translate(0, 23)                     scale(1, 1)" />
<path d="M350,320 C350,420,650,440,650,540" stroke="#5e81ac" fill="none" stroke-width="2" transform="                    translate(0, 24)                     scale(1, 1)" />
<path d="M350,320 C350,420,650,440,650,540" stroke="#5e81ac" fill="none" stroke-width="2" transform="                    translate(0, 25)                     scale(1, 1)" />
<path d="M350,320 C350,420,650,440,650,540" stroke="#5e81ac" fill="none" stroke-width="2" transform="                    translate(0, 26)                     scale(1, 1)" />
<path d="M350,320 C350,420,650,440,650,540" stroke="#5e81ac" fill="none" stroke-width="2" transform="                    translate(0, 27)                     scale(1, 1)" />
<path d="M350,320 C350,420,650,440,650,540" stroke="#5e81ac" fill="none" stroke-width="2" transform="                    translate(0, 28)                     scale(1, 1)" />
<path d="M350,320 C350,420,650,440,650,540" stroke="#5e81ac" fill="none" stroke-width="2" transform="                    translate(0, 29)                     scale(1, 1)" />
<path d="M350,320 C350,420,650,440,650,540" stroke="#5e81ac" fill="none" stroke-width="2" transform="                    translate(0, 30)                     scale(1, 1)" />
<path d="M350,320 C350,420,650,440,650,540" stroke="#5e81ac" fill="none" stroke-width="2" transform="                    translate(0, 31)                     scale(1, 1)" />
<path d="M350,320 C350,420,650,440,650,540" stroke="#5e81ac" fill="none" stroke-width="2" transform="                    translate(0, 32)                     scale(1, 1)" />
<path d="M350,320 C350,420,650,440,650,540" stroke="#5e81ac" fill="none" stroke-width="2" transform="                    translate(0, 33)                     scale(1, 1)" />
<path d="M350,320 C350,420,650,440,650,540" stroke="#5e81ac" fill="none" stroke-width="2" transform="                    translate(0, 34)                     scale(1, 1)" />
<path d="M350,320 C350,420,650,440,650,540" stroke="#5e81ac" fill="none" stroke-width="2" transform="                    translate(0, 35)                     scale(1, 1)" />
<path d="M350,320 C350,420,650,440,650,540" stroke="#5e81ac" fill="none" stroke-width="2" transform="                    translate(0, 36)                     scale(1, 1)" />
<path d="M350,320 C350,420,650,440,650,540" stroke="#5e81ac" fill="none" stroke-width="2" transform="                    translate(0, 37)                     scale(1, 1)" />
<path d="M350,320 C350,420,650,440,650,540" stroke="#5e81ac" fill="none" stroke-width="2" transform="                    translate(0, 38)                     scale(1, 1)" />
<path d="M350,320 C350,420,650,440,650,540" stroke="#5e81ac" fill="none" stroke-width="2" transform="                    translate(0, 39)                     scale(1, 1)" />
<path d="M350,320 C350,420,650,440,650,540" stroke="#5e81ac" fill="none" stroke-width="2" transform="                    translate(0, 40)                     scale(1, 1)" />
<path d="M350,320 C350,420,650,440,650,540" stroke="#5e81ac" fill="none" stroke-width="2" transform="                    translate(0, 41)                     scale(1, 1)" />
<path d="M350,320 C350,420,650,440,650,540" stroke="#5e81ac" fill="none" stroke-width="2" transform="                    translate(0, 42)                     scale(1, 1)" />
<path d="M350,320 C350,420,650,440,650,540" stroke="#5e81ac" fill="none" stroke-width="2" transform="                    translate(0, 43)                     scale(1, 1)" />
<path d="M350,320 C350,420,650,440,650,540" stroke="#5e81ac" fill="none" stroke-width="2" transform="                    translate(0, 44)                     scale(1, 1)" />
<path d="M350,400 C375,300,625,380,650,280" stroke="#81a1c1" fill="none" stroke-width="2" transform="                    translate(0, 0)                     scale(1, 1)" />
<path d="M350,400 C375,300,625,380,650,280" stroke="#81a1c1" fill="none" stroke-width="2" transform="                    translate(0, 1)                     scale(1, 1)" />
<path d="M350,400 C375,300,625,380,650,280" stroke="#81a1c1" fill="none" stroke-width="2" transform="                    translate(0, 2)                     scale(1, 1)" />
<path d="M350,400 C375,300,625,380,650,280" stroke="#81a1c1" fill="none" stroke-width="2" transform="                    translate(0, 3)                     scale(1, 1)" />
<path d="M350,400 C375,300,625,380,650,280" stroke="#81a1c1" fill="none" stroke-width="2" transform="                    translate(0, 4)                     scale(1, 1)" />
<path d="M350,400 C375,300,625,380,650,280" stroke="#81a1c1" fill="none" stroke-width="2" transform="                    translate(0, 5)                     scale(1, 1)" />
<path d="M350,400 C375,300,625,380,650,280" stroke="#81a1c1" fill="none" stroke-width="2" transform="                    translate(0, 6)                     scale(1, 1)" />
<path d="M350,400 C375,300,625,380,650,280" stroke="#81a1c1" fill="none" stroke-width="2" transform="                    translate(0, 7)                     scale(1, 1)" />
<path d="M350,400 C375,300,625,380,650,280" stroke="#81a1c1" fill="none" stroke-width="2" transform="                    translate(0, 8)                     scale(1, 1)" />
<path d="M350,400 C375,300,625,380,650,280" stroke="#81a1c1" fill="none" stroke-width="2" transform="                    translate(0, 9)                     scale(1, 1)" />
<path d="M350,400 C375,300,625,380,650,280" stroke="#81a1c1" fill="none" stroke-width="2" transform="                    translate(0, 10)                     scale(1, 1)" />
<path d="M350,400 C375,300,625,380,650,280" stroke="#81a1c1" fill="none" stroke-width="2" transform="                    translate(0, 11)                     scale(1, 1)" />
<path d="M350,400 C375,300,625,380,650,280" stroke="#81a1c1" fill="none" stroke-width="2" transform="                    translate(0, 12)                     scale(1, 1)" />
<path d="M350,400 C375,300,625,380,650,280" stroke="#81a1c1" fill="none" stroke-width="2" transform="                    translate(0, 13)                     scale(1, 1)" />
<path d="M350,400 C375,300,625,380,650,280" stroke="#81a1c1" fill="none" stroke-width="2" transform="                    translate(0, 14)                     scale(1, 1)" />
<path d="M350,400 C375,300,625,380,650,280" stroke="#81a1c1" fill="none" stroke-width="2" transform="                    translate(0, 15)                     scale(1, 1)" />
<path d="M350,400 C375,300,625,380,650,280" stroke="#81a1c1" fill="none" stroke-width="2" transform="                    translate(0, 16)                     scale(1, 1)" />
<path d="M350,400 C375,300,625,380,650,280" stroke="#81a1c1" fill="none" stroke-width="2" transform="                    translate(0, 17)                     scale(1, 1)" />
<path d="M350,400 C375,300,625,380,650,280" stroke="#81a1c1" fill="none" stroke-width="2" transform="                    translate(0, 18)                     scale(1, 1)" />
<path d="M350,400 C375,300,625,380,650,280" stroke="#81a1c1" fill="none" stroke-width="2" transform="                    translate(0, 19)                     scale(1, 1)" />
<path d="M350,400 C375,300,625,380,650,280" stroke="#81a1c1" fill="none" stroke-width="2" transform="                    translate(0, 20)                     scale(1, 1)" />
<path d="M350,400 C375,300,625,380,650,280" stroke="#81a1c1" fill="none" stroke-width="2" transform="                    translate(0, 21)                     scale(1, 1)" />
<path d="M350,400 C375,300,625,380,650,280" stroke="#81a1c1" fill="none" stroke-width="2" transform="                    translate(0, 22)                     scale(1, 1)" />
<path d="M350,400 C375,300,625,380,650,280" stroke="#81a1c1" fill="none" stroke-width="2" transform="                    translate(0, 23)                     scale(1, 1)" />
<path d="M350,400 C375,300,625,380,650,280" stroke="#81a1c1" fill="none" stroke-width="2" transform="                    translate(0, 24)                     scale(1, 1)" />
<path d="M350,400 C375,300,625,380,650,280" stroke="#81a1c1" fill="none" stroke-width="2" transform="                    translate(0, 25)                     scale(1, 1)" />
<path d="M350,400 C375,300,625,380,650,280" stroke="#81a1c1" fill="none" stroke-width="2" transform="                    translate(0, 26)                     scale(1, 1)" />
<path d="M350,400 C375,300,625,380,650,280" stroke="#81a1c1" fill="none" stroke-width="2" transform="                    translate(0, 27)                     scale(1, 1)" />
<path d="M350,400 C375,300,625,380,650,280" stroke="#81a1c1" fill="none" stroke-width="2" transform="                    translate(0, 28)                     scale(1, 1)" />
<path d="M350,400 C375,300,625,380,650,280" stroke="#81a1c1" fill="none" stroke-width="2" transform="                    translate(0, 29)                     scale(1, 1)" />
<path d="M350,400 C375,300,625,380,650,280" stroke="#81a1c1" fill="none" stroke-width="2" transform="                    translate(0, 30)                     scale(1, 1)" />
<path d="M350,400 C375,300,625,380,650,280" stroke="#81a1c1" fill="none" stroke-width="2" transform="                    translate(0, 31)                     scale(1, 1)" />
<path d="M350,400 C375,300,625,380,650,280" stroke="#81a1c1" fill="none" stroke-width="2" transform="                    translate(0, 32)                     scale(1, 1)" />
<path d="M350,400 C375,300,625,380,650,280" stroke="#81a1c1" fill="none" stroke-width="2" transform="                    translate(0, 33)                     scale(1, 1)" />
<path d="M350,400 C375,300,625,380,650,280" stroke="#81a1c1" fill="none" stroke-width="2" transform="                    translate(0, 34)                     scale(1, 1)" />
<path d="M350,400 C375,300,625,380,650,280" stroke="#81a1c1" fill="none" stroke-width="2" transform="                    translate(0, 35)                     scale(1, 1)" />
<path d="M350,400 C375,300,625,380,650,280" stroke="#81a1c1" fill="none" stroke-width="2" transform="                    translate(0, 36)                     scale(1, 1)" />
<path d="M350,400 C375,300,625,380,650,280" stroke="#81a1c1" fill="none" stroke-width="2" transform="                    translate(0, 37)                     scale(1, 1)" />
<path d="M350,400 C375,300,625,380,650,280" stroke="#81a1c1" fill="none" stroke-width="2" transform="                    translate(0, 38)                     scale(1, 1)" />
<path d="M350,400 C375,300,625,380,650,280" stroke="#81a1c1" fill="none" stroke-width="2" transform="                    translate(0, 39)                     scale(1, 1)" />
<path d="M350,400 C375,300,625,380,650,280" stroke="#81a1c1" fill="none" stroke-width="2" transform="                    translate(0, 40)                     scale(1, 1)" />
<path d="M350,400 C375,300,625,380,650,280" stroke="#81a1c1" fill="none" stroke-width="2" transform="                    translate(0, 41)                     scale(1, 1)" />
<path d="M350,400 C375,300,625,380,650,280" stroke="#81a1c1" fill="none" stroke-width="2" transform="                    translate(0, 42)                     scale(1, 1)" />
<path d="M350,400 C375,300,625,380,650,280" stroke="#81a1c1" fill="none" stroke-width="2" transform="                    translate(0, 43)                     scale(1, 1)" />
<path d="M350,400 C375,300,625,380,650,280" stroke="#81a1c1" fill="none" stroke-width="2" transform="                    translate(0, 44)                     scale(1, 1)" />
<path d="M350,650 C375,550,625,630,650,530" stroke="#81a1c1" fill="none" stroke-width="2" transform="                    translate(0, 10)                     scale(1, 1)" />
<path d="M350,650 C375,550,625,630,650,530" stroke="#81a1c1" fill="none" stroke-width="2" transform="                    translate(0, 11)                     scale(1, 1)" />
<path d="M350,650 C375,550,625,630,650,530" stroke="#81a1c1" fill="none" stroke-width="2" transform="                    translate(0, 12)                     scale(1, 1)" />
<path d="M350,650 C375,550,625,630,650,530" stroke="#81a1c1" fill="none" stroke-width="2" transform="                    translate(0, 13)                     scale(1, 1)" />
<path d="M350,650 C375,550,625,630,650,530" stroke="#81a1c1" fill="none" stroke-width="2" transform="                    translate(0, 14)                     scale(1, 1)" />
<path d="M350,650 C375,550,625,630,650,530" stroke="#81a1c1" fill="none" stroke-width="2" transform="                    translate(0, 15)                     scale(1, 1)" />
<path d="M350,650 C375,550,625,630,650,530" stroke="#81a1c1" fill="none" stroke-width="2" transform="                    translate(0, 16)                     scale(1, 1)" />
<path d="M350,650 C375,550,625,630,650,530" stroke="#81a1c1" fill="none" stroke-width="2" transform="                    translate(0, 17)                     scale(1, 1)" />
<path d="M350,650 C375,550,625,630,650,530" stroke="#81a1c1" fill="none" stroke-width="2" transform="                    translate(0, 18)                     scale(1, 1)" />
<path d="M350,650 C375,550,625,630,650,530" stroke="#81a1c1" fill="none" stroke-width="2" transform="                    translate(0, 19)                     scale(1, 1)" />
<path d="M350,650 C375,550,625,630,650,530" stroke="#81a1c1" fill="none" stroke-width="2" transform="                    translate(0, 20)                     scale(1, 1)" />
<path d="M350,650 C375,550,625,630,650,530" stroke="#81a1c1" fill="none" stroke-width="2" transform="                    translate(0, 21)                     scale(1, 1)" />
<path d="M350,650 C375,550,625,630,650,530" stroke="#81a1c1" fill="none" stroke-width="2" transform="                    translate(0, 22)                     scale(1, 1)" />
<path d="M350,650 C375,550,625,630,650,530" stroke="#81a1c1" fill="none" stroke-width="2" transform="                    translate(0, 23)                     scale(1, 1)" />
<path d="M350,650 C375,550,625,630,650,530" stroke="#81a1c1" fill="none" stroke-width="2" transform="                    translate(0, 24)                     scale(1, 1)" />
<path d="M350,650 C375,550,625,630,650,530" stroke="#81a1c1" fill="none" stroke-width="2" transform="                    translate(0, 25)                     scale(1, 1)" />
<path d="M350,650 C375,550,625,630,650,530" stroke="#81a1c1" fill="none" stroke-width="2" transform="                    translate(0, 26)                     scale(1, 1)" />
<path d="M350,650 C375,550,625,630,650,530" stroke="#81a1c1" fill="none" stroke-width="2" transform="                    translate(0, 27)                     scale(1, 1)" />
<path d="M350,650 C375,550,625,630,650,530" stroke="#81a1c1" fill="none" stroke-width="2" transform="                    translate(0, 28)                     scale(1, 1)" />
<path d="M350,650 C375,550,625,630,650,530" stroke="#81a1c1" fill="none" stroke-width="2" transform="                    translate(0, 29)                     scale(1, 1)" />
<path d="M350,650 C375,550,625,630,650,530" stroke="#81a1c1" fill="none" stroke-width="2" transform="                    translate(0, 30)                     scale(1, 1)" />
<path d="M350,650 C375,550,625,630,650,530" stroke="#81a1c1" fill="none" stroke-width="2" transform="                    translate(0, 31)                     scale(1, 1)" />
<path d="M350,650 C375,550,625,630,650,530" stroke="#81a1c1" fill="none" stroke-width="2" transform="                    translate(0, 32)                     scale(1, 1)" />
<path d="M350,650 C375,550,625,630,650,530" stroke="#81a1c1" fill="none" stroke-width="2" transform="                    translate(0, 33)                     scale(1, 1)" />
<path d="M350,650 C375,550,625,630,650,530" stroke="#81a1c1" fill="none" stroke-width="2" transform="                    translate(0, 34)                     scale(1, 1)" />
<path d="M350,650 C375,550,625,630,650,530" stroke="#81a1c1" fill="none" stroke-width="2" transform="                    translate(0, 35)                     scale(1, 1)" />
<path d="M350,650 C375,550,625,630,650,530" stroke="#81a1c1" fill="none" stroke-width="2" transform="                    translate(0, 36)                     scale(1, 1)" />
<path d="M350,650 C375,550,625,630,650,530" stroke="#81a1c1" fill="none" stroke-width="2" transform="                    translate(0, 37)                     scale(1, 1)" />
<path d="M350,650 C375,550,625,630,650,530" stroke="#81a1c1" fill="none" stroke-width="2" transform="                    translate(0, 38)                     scale(1, 1)" />
<path d="M350,650 C375,550,625,630,650,530" stroke="#81a1c1" fill="none" stroke-width="2" transform="                    translate(0, 39)                     scale(1, 1)" />
<path d="M350,650 C375,550,625,630,650,530" stroke="#81a1c1" fill="none" stroke-width="2" transform="                    translate(0, 40)                     scale(1, 1)" />
<path d="M350,650 C375,550,625,630,650,530" stroke="#81a1c1" fill="none" stroke-width="2" transform="                    translate(0, 41)                     scale(1, 1)" />
<path d="M350,650 C375,550,625,630,650,530" stroke="#81a1c1" fill="none" stroke-width="2" transform="                    translate(0, 42)                     scale(1, 1)" />
<path d="M350,650 C375,550,625,630,650,530" stroke="#81a1c1" fill="none" stroke-width="2" transform="                    translate(0, 43)                     scale(1, 1)" />
<path d="M350,650 C375,550,625,630,650,530" stroke="#81a1c1" fill="none" stroke-width="2" transform="                    translate(0, 44)                     scale(1, 1)" />
<path d="M350,650 C375,550,625,630,650,530" stroke="#81a1c1" fill="none" stroke-width="2" transform="                    translate(0, 45)                     scale(1, 1)" />
<path d="M350,650 C375,550,625,630,650,530" stroke="#81a1c1" fill="none" stroke-width="2" transform="                    translate(0, 46)                     scale(1, 1)" />
<path d="M350,650 C375,550,625,630,650,530" stroke="#81a1c1" fill="none" stroke-width="2" transform="                    translate(0, 47)                     scale(1, 1)" />
<path d="M350,650 C375,550,625,630,650,530" stroke="#81a1c1" fill="none" stroke-width="2" transform="                    translate(0, 48)                     scale(1, 1)" />
<path d="M350,650 C375,550,625,630,650,530" stroke="#81a1c1" fill="none" stroke-width="2" transform="                    translate(0, 49)                     scale(1, 1)" />
<path d="M350,650 C375,550,625,630,650,530" stroke="#81a1c1" fill="none" stroke-width="2" transform="                    translate(0, 50)                     scale(1, 1)" />
<path d="M350,650 C375,550,625,630,650,530" stroke="#81a1c1" fill="none" stroke-width="2" transform="                    translate(0, 51)                     scale(1, 1)" />
<path d="M350,650 C375,550,625,630,650,530" stroke="#81a1c1" fill="none" stroke-width="2" transform="                    translate(0, 52)                     scale(1, 1)" />
<path d="M350,650 C375,550,625,630,650,530" stroke="#81a1c1" fill="none" stroke-width="2" transform="                    translate(0, 53)                     scale(1, 1)" />
<path d="M350,650 C375,550,625,630,650,530" stroke="#81a1c1" fill="none" stroke-width="2" transform="                    translate(0, 54)                     scale(1, 1)" />
</svg>